<svg width="21" height="20" viewBox="0 0 21 20" fill="none" xmlns="http://www.w3.org/2000/svg">
<rect width="20" height="20" transform="translate(0.5)" fill="#374151"/>
<path d="M16.333 5.83333L15.6105 15.9517C15.5806 16.3722 15.3924 16.7657 15.0839 17.053C14.7755 17.3403 14.3696 17.5 13.948 17.5H7.05134C6.62979 17.5 6.2239 17.3403 5.91541 17.053C5.60693 16.7657 5.41877 16.3722 5.38884 15.9517L4.66634 5.83333H7.99967V3.33333C7.99967 3.11232 8.08747 2.90036 8.24375 2.74408C8.40003 2.5878 8.61199 2.5 8.83301 2.5H12.1663C12.3874 2.5 12.5993 2.5878 12.7556 2.74408C12.9119 2.90036 12.9997 3.11232 12.9997 3.33333V5.83333H16.333Z" fill="white"/>
<path d="M8.83301 9.16667V14.1667M12.1663 9.16667V14.1667M3.83301 5.83333H17.1663M16.333 5.83333L15.6105 15.9517C15.5806 16.3722 15.3924 16.7657 15.0839 17.053C14.7755 17.3403 14.3696 17.5 13.948 17.5H7.05134C6.62979 17.5 6.2239 17.3403 5.91541 17.053C5.60693 16.7657 5.41877 16.3722 5.38884 15.9517L4.66634 5.83333H16.333ZM12.9997 5.83333V3.33333C12.9997 3.11232 12.9119 2.90036 12.7556 2.74408C12.5993 2.5878 12.3874 2.5 12.1663 2.5H8.83301C8.61199 2.5 8.40003 2.5878 8.24375 2.74408C8.08747 2.90036 7.99967 3.11232 7.99967 3.33333V5.83333H12.9997Z" stroke="#374151" stroke-width="2" stroke-linecap="round" stroke-linejoin="round"/>
</svg>
