<svg width="21" height="20" viewBox="0 0 21 20" fill="none" xmlns="http://www.w3.org/2000/svg">
<path d="M15.6957 2.61483C15.4923 2.70218 15.3084 2.82915 15.1547 2.98834L7.99967 10.1433V12.5H10.3563L17.5113 5.345C17.6705 5.19126 17.7975 5.00735 17.8848 4.80401C17.9722 4.60067 18.0182 4.38197 18.0201 4.16067C18.022 3.93937 17.9798 3.71991 17.896 3.51508C17.8122 3.31025 17.6885 3.12417 17.532 2.96768C17.3755 2.81119 17.1894 2.68744 16.9846 2.60363C16.7798 2.51983 16.5603 2.47766 16.339 2.47959C16.1177 2.48151 15.899 2.52749 15.6957 2.61483Z" fill="white"/>
<path d="M9.66634 4.16667H5.49967C5.05765 4.16667 4.63372 4.34226 4.32116 4.65482C4.0086 4.96739 3.83301 5.39131 3.83301 5.83334V15C3.83301 15.442 4.0086 15.866 4.32116 16.1785C4.63372 16.4911 5.05765 16.6667 5.49967 16.6667H14.6663C15.1084 16.6667 15.5323 16.4911 15.8449 16.1785C16.1574 15.866 16.333 15.442 16.333 15V10.8333M15.1547 2.98834C15.3084 2.82915 15.4923 2.70218 15.6957 2.61483C15.899 2.52749 16.1177 2.48151 16.339 2.47959C16.5603 2.47766 16.7798 2.51983 16.9846 2.60363C17.1894 2.68744 17.3755 2.81119 17.532 2.96768C17.6885 3.12417 17.8122 3.31025 17.896 3.51508C17.9798 3.71991 18.022 3.93937 18.0201 4.16067C18.0182 4.38197 17.9722 4.60067 17.8848 4.80401C17.7975 5.00735 17.6705 5.19126 17.5113 5.345L10.3563 12.5H7.99967V10.1433L15.1547 2.98834Z" stroke="#374151" stroke-width="2" stroke-linecap="round" stroke-linejoin="round"/>
</svg>
