<svg width="21" height="20" viewBox="0 0 21 20" fill="none" xmlns="http://www.w3.org/2000/svg">
<rect width="20" height="20" transform="translate(0.5)" fill="white"/>
<path d="M12.2678 11.7678C12.7366 11.2989 13 10.663 13 10C13 9.33696 12.7366 8.70107 12.2678 8.23223C11.7989 7.76339 11.163 7.5 10.5 7.5C9.83696 7.5 9.20107 7.76339 8.73223 8.23223C8.26339 8.70107 8 9.33696 8 10C8 10.663 8.26339 11.2989 8.73223 11.7678C9.20107 12.2366 9.83696 12.5 10.5 12.5C11.163 12.5 11.7989 12.2366 12.2678 11.7678Z" fill="white" stroke="#374151" stroke-width="2" stroke-linecap="round" stroke-linejoin="round"/>
<path d="M2.54785 9.99999C3.60952 6.61916 6.76868 4.16666 10.4995 4.16666C14.2312 4.16666 17.3895 6.61916 18.4512 9.99999C17.3895 13.3808 14.2312 15.8333 10.4995 15.8333C6.76868 15.8333 3.60952 13.3808 2.54785 9.99999Z" stroke="#374151" stroke-width="2" stroke-linecap="round" stroke-linejoin="round"/>
</svg>
